# xmcd CD database file
#
# Track frame offsets:
#	150
#	20387
#	35148
#	54025
#	77992
#	96116
#	116255
#	136060
#	159052
#	174154
#	197288
#	213589
#	236436
#
# Disc length: 3518 seconds
#
# Revision: 0
# Processed by: cddbd v1.4PL0 Copyright (c) Steve Scherf et al.
# Submitted via: CDex 1.50
#
DISCID=920dbc0d
DTITLE=Shemekia Copeland - Wicked, Wicked, Wicked
DYEAR=1900
DGENRE=Blues
TTITLE0=It's 2 A.M.
TTITLE1=Not Tonight
TTITLE2=Love Scene
TTITLE3=The Other Woman
TTITLE4=Whole Lotta Water
TTITLE5=Beat Up Guitar
TTITLE6=Miss Hy Ciditty
TTITLE7=Up On 1-2-5
TTITLE8=Wild, Wild Woman
TTITLE9=The Fool You're Looking For
TTITLE10=If He Moves His Lips
TTITLE11=Steamy Windows
TTITLE12=It's My Own Tears
EXTD=
EXTT0=
EXTT1=
EXTT2=
EXTT3=
EXTT4=
EXTT5=
EXTT6=
EXTT7=
EXTT8=
EXTT9=
EXTT10=
EXTT11=
EXTT12=
PLAYORDER=
